<svg xmlns="http://www.w3.org/2000/svg" width="268" height="76.118" viewBox="0 0 268 76.118">
  <ellipse id="Ellipse_1" data-name="Ellipse 1" cx="38.985" cy="38.059" rx="38.985" ry="38.059" fill="#025ecc"/>
  <path id="Path_1" data-name="Path 1" d="M55.515,23.618a36.649,36.649,0,0,0-1.357-5.5,34.233,34.233,0,0,0-2.639-5.957,34.838,34.838,0,0,0-3.393-4.826V6.8a15.758,15.758,0,0,0,1.659-1.508l.98-.679L41.264,1.6a12.835,12.835,0,0,0,.679,2.941l.9,3.77a4.259,4.259,0,0,0,.6,2.639h0L44.2,10.2l1.131-1.056h0l1.131,1.433A30.162,30.162,0,0,1,49.106,14.8a26.845,26.845,0,0,1,2.865,4.9,26.619,26.619,0,0,1,.98,4.072,22.17,22.17,0,0,1,0,3.469,27.523,27.523,0,0,1-.528,7.541,27.3,27.3,0,0,1-1.659,5.5,28.5,28.5,0,0,1-5.957,9.124,32.424,32.424,0,0,1-5.2,4.449,30.539,30.539,0,0,1-8.295,3.77,24.884,24.884,0,0,1-7.541,1.131H17.662L16.229,57.4A27.221,27.221,0,0,1,10.2,55.289a29.71,29.71,0,0,1-5.882-3.695H3.787L2.43,53.253v.452L5.6,55.967a35.29,35.29,0,0,0,8.973,3.921,30.162,30.162,0,0,0,6.259.98,30.841,30.841,0,0,0,9.124-.6A35.743,35.743,0,0,0,37.494,57.7a34.159,34.159,0,0,0,8.822-6.259,36.5,36.5,0,0,0,4-4.9,33.254,33.254,0,0,0,4.3-9.049,36.874,36.874,0,0,0,1.282-7.541,40.039,40.039,0,0,0-.377-6.334Z" transform="translate(15.894 8.613)" fill="#fff"/>
  <path id="Path_2" data-name="Path 2" d="M4.46,4.639Z" transform="translate(29.171 29.298)" fill="#fff"/>
  <path id="Path_3" data-name="Path 3" d="M4.1,4.52Z" transform="translate(26.816 28.753)" fill="#fff"/>
  <path id="Path_4" data-name="Path 4" d="M4.64,4.46Z" transform="translate(30.348 28.372)" fill="#fff"/>
  <path id="Path_5" data-name="Path 5" d="M4.3,4.519Z" transform="translate(28.124 28.534)" fill="#fff"/>
  <path id="Path_6" data-name="Path 6" d="M3.329,3.93Z" transform="translate(21.555 25)" fill="#fff"/>
  <path id="Path_7" data-name="Path 7" d="M4,4.769Z" transform="translate(26.162 30.125)" fill="#fff"/>
  <path id="Path_8" data-name="Path 8" d="M4.16,4.888Z" transform="translate(27.209 30.669)" fill="#fff"/>
  <path id="Path_9" data-name="Path 9" d="M4.18,4.58Z" transform="translate(27.339 29.136)" fill="#fff"/>
  <path id="Path_10" data-name="Path 10" d="M3.64,4.44Z" transform="translate(23.808 28.245)" fill="#fff"/>
  <path id="Path_11" data-name="Path 11" d="M3.339,4.229Z" transform="translate(21.62 26.69)" fill="#fff"/>
  <path id="Path_12" data-name="Path 12" d="M3.23,4.09Z" transform="translate(21.126 26.018)" fill="#fff"/>
  <path id="Path_13" data-name="Path 13" d="M3.52,3.87Z" transform="translate(23.023 24.619)" fill="#fff"/>
  <path id="Path_14" data-name="Path 14" d="M4.08,4.77Z" transform="translate(26.685 30.344)" fill="#fff"/>
  <path id="Path_15" data-name="Path 15" d="M4.24,4.41Z" transform="translate(27.732 28.054)" fill="#fff"/>
  <path id="Path_16" data-name="Path 16" d="M3.45,4.05Z" transform="translate(22.565 25.764)" fill="#fff"/>
  <path id="Path_17" data-name="Path 17" d="M4.23,4.61Z" transform="translate(27.667 29.326)" fill="#fff"/>
  <path id="Path_18" data-name="Path 18" d="M3.55,3.709Z" transform="translate(23.219 23.382)" fill="#fff"/>
  <path id="Path_19" data-name="Path 19" d="M4.377,4h0Z" transform="translate(26.162 25.446)" fill="#fff"/>
  <path id="Path_20" data-name="Path 20" d="M3.37,4Z" transform="translate(22.042 25.446)" fill="#fff"/>
  <path id="Path_21" data-name="Path 21" d="M3.819,4.589Z" transform="translate(24.76 28.98)" fill="#fff"/>
  <path id="Path_22" data-name="Path 22" d="M3.87,4.62Z" transform="translate(25.312 29.39)" fill="#fff"/>
  <path id="Path_23" data-name="Path 23" d="M4.37,4.25Z" transform="translate(28.582 27.036)" fill="#fff"/>
  <path id="Path_24" data-name="Path 24" d="M3.7,4.23Z" transform="translate(24.2 26.909)" fill="#fff"/>
  <path id="Path_25" data-name="Path 25" d="M3.458,4.289Z" transform="translate(22.18 27.071)" fill="#fff"/>
  <path id="Path_26" data-name="Path 26" d="M4.17,4.35Z" transform="translate(27.274 27.672)" fill="#fff"/>
  <path id="Path_27" data-name="Path 27" d="M3.569,4.11Z" transform="translate(23.124 26.145)" fill="#fff"/>
  <path id="Path_28" data-name="Path 28" d="M4.39,4.73Z" transform="translate(28.713 30.09)" fill="#fff"/>
  <path id="Path_29" data-name="Path 29" d="M3.61,4.17Z" transform="translate(23.611 26.527)" fill="#fff"/>
  <path id="Path_30" data-name="Path 30" d="M3.739,4.5Z" transform="translate(24.236 28.627)" fill="#fff"/>
  <path id="Path_31" data-name="Path 31" d="M3.608,4.409Z" transform="translate(23.161 27.835)" fill="#fff"/>
  <path id="Path_32" data-name="Path 32" d="M4.13,4.08Z" transform="translate(27.012 25.955)" fill="#fff"/>
  <path id="Path_33" data-name="Path 33" d="M3.12,4.2Z" transform="translate(20.407 25.621)" fill="#fff"/>
  <path id="Path_34" data-name="Path 34" d="M3.65,3.71Z" transform="translate(23.873 23.601)" fill="#fff"/>
  <path id="Path_35" data-name="Path 35" d="M3.509,3.83Z" transform="translate(22.732 24.364)" fill="#fff"/>
  <path id="Path_36" data-name="Path 36" d="M3.48,4.32Z" transform="translate(22.761 27.482)" fill="#fff"/>
  <path id="Path_37" data-name="Path 37" d="M4.45,4.31Z" transform="translate(29.105 27.418)" fill="#fff"/>
  <path id="Path_38" data-name="Path 38" d="M4.21,4.13Z" transform="translate(27.536 26.273)" fill="#fff"/>
  <path id="Path_39" data-name="Path 39" d="M4.31,4.67Z" transform="translate(28.19 29.708)" fill="#fff"/>
  <path id="Path_40" data-name="Path 40" d="M3.77,4Z" transform="translate(24.658 25.444)" fill="#fff"/>
  <path id="Path_41" data-name="Path 41" d="M3.81,3.84Z" transform="translate(24.919 24.428)" fill="#fff"/>
  <path id="Path_42" data-name="Path 42" d="M3.86,4.35Z" transform="translate(25.247 27.672)" fill="#fff"/>
  <path id="Path_43" data-name="Path 43" d="M3.9,3.89Z" transform="translate(25.508 24.746)" fill="#fff"/>
  <path id="Path_44" data-name="Path 44" d="M4,4.23Z" transform="translate(26.162 26.909)" fill="#fff"/>
  <path id="Path_45" data-name="Path 45" d="M3.78,4.29Z" transform="translate(24.723 27.291)" fill="#fff"/>
  <path id="Path_46" data-name="Path 46" d="M3.94,4.41Z" transform="translate(25.77 28.054)" fill="#fff"/>
  <path id="Path_47" data-name="Path 47" d="M3.92,4.17Z" transform="translate(25.639 26.527)" fill="#fff"/>
  <path id="Path_48" data-name="Path 48" d="M3.85,4.11Z" transform="translate(25.181 26.146)" fill="#fff"/>
  <path id="Path_49" data-name="Path 49" d="M3.74,3.78Z" transform="translate(24.462 24.046)" fill="#fff"/>
  <path id="Path_50" data-name="Path 50" d="M4,4Z" transform="translate(26.162 25.446)" fill="#fff"/>
  <path id="Path_51" data-name="Path 51" d="M3.68,4Z" transform="translate(24.069 25.446)" fill="#fff"/>
  <path id="Path_52" data-name="Path 52" d="M4,4.46Z" transform="translate(26.162 28.372)" fill="#fff"/>
  <path id="Path_53" data-name="Path 53" d="M4.09,4.29Z" transform="translate(26.751 27.291)" fill="#fff"/>
  <path id="Path_54" data-name="Path 54" d="M3.6,3.93Z" transform="translate(23.546 25.001)" fill="#fff"/>
  <path id="Path_55" data-name="Path 55" d="M3.92,4.679Z" transform="translate(25.639 29.552)" fill="#fff"/>
  <path id="Path_56" data-name="Path 56" d="M4.56,4.4Z" transform="translate(29.825 27.99)" fill="#fff"/>
  <path id="Path_57" data-name="Path 57" d="M4.29,4.19Z" transform="translate(28.059 26.655)" fill="#fff"/>
  <path id="Path_58" data-name="Path 58" d="M4.4,4.53Z" transform="translate(28.778 28.818)" fill="#fff"/>
  <path id="Path_59" data-name="Path 59" d="M25.367,3.84H16.092c-.754,0-1.282,0-1.584.829h0L9.758,11.305H7.119A3.167,3.167,0,0,0,3.8,14.548v4.524a3.619,3.619,0,0,0,.452,1.81A3.167,3.167,0,0,0,7.119,22.39a4.675,4.675,0,0,0,7.993,0H26.121a4.6,4.6,0,0,0,5.731,1.433,4.826,4.826,0,0,0,2.111-1.961A3.171,3.171,0,0,0,36,19.751a3.469,3.469,0,0,0,0-1.508v-.754h0V14.7a3.318,3.318,0,0,0-2.941-2.941h-1.81a.679.679,0,0,1-.6,0L30.193,11,26.272,4.745a.9.9,0,0,0-.9-.9ZM14.659,20.731a3.544,3.544,0,0,1-3.619,3.318,3.551,3.551,0,0,1,.452-7.088H12.85a3.544,3.544,0,0,1,1.81,3.77Zm4.524-9.8H10.437L12.02,8.741l2.715-3.695a.6.6,0,0,1,.528,0h3.544V5.5Zm14.4,10.557v.679h0a.754.754,0,0,0,0,.377A3.57,3.57,0,0,1,27.1,20.5a3.393,3.393,0,0,1,2.036-3.167,3.167,3.167,0,0,1,3.619,0,.894.894,0,0,1,.679.452h0l.452.679v1.885ZM34.114,18.242ZM29.363,10.7v.452c0,.452-.377,0-.6,0H20.842V5.046h4.751a.528.528,0,0,1,.452,0l3.393,5.429Z" transform="translate(24.853 24.178)" fill="#fff"/>
  <path id="Path_60" data-name="Path 60" d="M11.016,48.065a18.625,18.625,0,0,0-.754-2.187,11.537,11.537,0,0,1-1.131-4.751v-3.77a4.449,4.449,0,0,0,0-1.056,64.4,64.4,0,0,1,2.036-8.6,1.357,1.357,0,0,1,0-.528,34.99,34.99,0,0,0,3.318-2.488,1.056,1.056,0,0,1,.829,0,4.072,4.072,0,0,1,1.885,0s0,.377.679,0l1.433-1.357a4.6,4.6,0,0,0,1.357-2.338.98.98,0,0,0-.528-1.131h0a2.564,2.564,0,0,0-1.282,0,6.108,6.108,0,0,0-3.393,1.584,19.53,19.53,0,0,0-4,4.6,5.429,5.429,0,0,0-.9,1.734c-.452,1.508-.829,3.016-1.206,4.524A32.262,32.262,0,0,0,8.6,37.131a2.413,2.413,0,0,0,0,1.056,1.433,1.433,0,0,0,0,.6h0a11.16,11.16,0,0,0,0,3.167,8.521,8.521,0,0,0,.452,2.715c.452,1.206,1.056,2.413,1.433,3.695s0,0,0,.377l-1.81,1.131h0L8,48.819A30.162,30.162,0,0,1,4.154,35.774a29.483,29.483,0,0,1,.829-11.085,30.162,30.162,0,0,1,4.147-8.521,33.782,33.782,0,0,1,5.731-6.108,31.519,31.519,0,0,1,8.672-4.826A28.956,28.956,0,0,1,32.28,3.651a24.281,24.281,0,0,1,4.675,0,31.143,31.143,0,0,1,5.278,1.056,34.309,34.309,0,0,1,5.429,2.262h.452l1.056-1.961h0a30.162,30.162,0,0,0-4.223-1.885A32.349,32.349,0,0,0,35.975.861,33.329,33.329,0,0,0,25.72,2.068,31.972,31.972,0,0,0,14.786,7.045,29.634,29.634,0,0,0,8.98,12.323a3.921,3.921,0,0,0-.754.829h0a32.575,32.575,0,0,0-3.544,5.5h0a13.2,13.2,0,0,0-.98,2.111A31.293,31.293,0,0,0,.836,32.23a32.424,32.424,0,0,0,1.282,9.727,34.083,34.083,0,0,0,3.318,8.37s.528.528.452.754a2.262,2.262,0,0,1-.829.528l-1.584.98,8.672,4.826L12,47.311Z" transform="translate(5.423 5.473)" fill="#fff"/>
  <text id="Don_t_Wait" data-name="Don&apos;t Wait" transform="translate(78 53)" fill="#2d2d2d" font-size="40" font-family="Lato-Bold, Lato" font-weight="700"><tspan x="0" y="0">Don&apos;t </tspan><tspan y="0" font-family="Lato-BoldItalic, Lato" font-style="italic">Wait</tspan></text>
</svg>
